<svg width="165" height="152" viewBox="0 0 165 152" fill="none" xmlns="http://www.w3.org/2000/svg">
<g clip-path="url(#clip0)">
<path d="M165 76.3687C165.018 94.6836 157.919 112.394 144.998 126.264C132.078 140.134 114.198 149.24 94.6255 151.917H72.2805C72.2455 151.945 71.0069 152 71.0069 152C70.799 151.974 70.5889 151.945 70.381 151.917C68.7901 151.7 67.2138 151.442 65.652 151.141C59.5367 149.969 53.5871 148.151 47.92 145.722C47.8609 145.698 47.804 145.672 47.745 145.647C44.5869 144.291 41.5264 142.747 38.5824 141.027C38.508 140.984 38.4358 140.942 38.3636 140.899C38.2389 140.826 38.1163 140.755 37.9938 140.68C37.9544 140.658 37.915 140.636 37.8756 140.612C35.2436 139.042 32.7105 137.335 30.2887 135.499C30.1705 135.412 30.0523 135.32 29.9342 135.231C29.4593 134.867 28.9888 134.498 28.5227 134.125C28.5183 134.123 28.5161 134.119 28.5117 134.117C26.13 132.206 23.8672 130.172 21.7345 128.024C21.7279 128.016 21.7192 128.01 21.7126 128.002C12.3438 118.568 5.69577 107.1 2.38311 94.6587C2.35685 94.5695 2.33496 94.4824 2.31089 94.3933C0.771594 88.4911 -0.00414174 82.4404 1.66295e-05 76.3687C1.66295e-05 34.1917 36.9368 0 82.5 0C128.063 0 165 34.1917 165 76.3687Z" fill="#3F3D56"/>
<path opacity="0.8" d="M90.1271 87.6348L97.3421 79.8159L104.557 71.997L108.63 67.5831C108.856 67.3389 108.508 66.9579 108.282 67.2021L101.067 75.021L93.8523 82.8399L89.7793 87.2538C89.5539 87.498 89.9017 87.879 90.1271 87.6348Z" fill="url(#paint0_linear)"/>
<path d="M92.1089 68.1465H84.6467V151.917H92.1089V68.1465Z" fill="#2F2E41"/>
<path d="M89.7106 98.9005L89.6953 101.408L89.5137 131.846L89.4918 135.474L89.4437 143.65L89.3955 151.917H88.9141L88.9622 143.65L89.0082 136.013L89.0322 131.771L89.2139 101.414L89.2292 98.8984L89.7106 98.9005Z" fill="#6C63FF"/>
<path d="M93.4485 69.2607H83.3375C83.1908 67.7944 83.5558 66.3177 84.4961 64.8293L84.782 63.021H91.7633L92.0926 64.8065C93.0709 66.0129 93.4498 67.5362 93.4485 69.2607Z" fill="#2F2E41"/>
<path d="M91.9796 63.2435H84.7752C84.7024 63.2435 84.6306 63.2282 84.5651 63.1988C84.4996 63.1694 84.4421 63.1267 84.3971 63.0737C84.352 63.0208 84.3205 62.9592 84.3049 62.8933C84.2893 62.8275 84.29 62.7593 84.307 62.6938L85.5203 58.014C85.5456 57.9167 85.6055 57.83 85.6904 57.7681C85.7753 57.7061 85.8803 57.6724 85.9885 57.6724H90.7663C90.8744 57.6724 90.9794 57.7061 91.0644 57.7681C91.1493 57.83 91.2092 57.9167 91.2345 58.014L92.4478 62.6938C92.4648 62.7593 92.4655 62.8275 92.4499 62.8933C92.4343 62.9592 92.4028 63.0208 92.3577 63.0737C92.3126 63.1267 92.2552 63.1694 92.1897 63.1988C92.1242 63.2282 92.0524 63.2435 91.9796 63.2435Z" fill="#2F2E41"/>
<path d="M88.3779 55.332C87.7074 55.3328 87.0646 55.5798 86.5907 56.0188C86.1168 56.4579 85.8505 57.0531 85.8503 57.6737V60.0134H90.9054V57.6737C90.9052 57.0531 90.6389 56.4579 90.165 56.0188C89.6911 55.5798 89.0483 55.3328 88.3779 55.332Z" fill="#2F2E41"/>
<path d="M85.5749 126.021L68.4434 146.603L70.8127 147.109L84.1168 131.25H85.5749V126.021Z" fill="#2F2E41"/>
<path d="M91.8728 126.021L109.004 146.603L106.635 147.109L93.3309 131.25H91.8728V126.021Z" fill="#2F2E41"/>
<path d="M142.106 49.6802V129.168C136.782 134.317 130.71 138.754 124.063 142.352V49.6802H142.106Z" fill="#2F2E41"/>
<path d="M150.671 59.8032H138.825V70.7691H150.671V59.8032Z" fill="#2F2E41"/>
<path d="M134.451 23.1943H131.717V51.8743H134.451V23.1943Z" fill="#2F2E41"/>
<g opacity="0.4">
<path opacity="0.4" d="M125.595 49.6802H124.063V142.352C124.578 142.073 125.088 141.789 125.595 141.5V49.6802Z" fill="#E6E6E6"/>
<path opacity="0.4" d="M133.249 23.1943H131.717V49.6803H133.249V23.1943Z" fill="#E6E6E6"/>
</g>
<path d="M137.458 62.7559H127.616V67.817H137.458V62.7559Z" fill="#6C63FF"/>
<path d="M32.1536 63.0071C40.1535 63.0071 46.6387 57.0039 46.6387 49.5985C46.6387 42.1932 40.1535 36.1899 32.1536 36.1899C24.1537 36.1899 17.6685 42.1932 17.6685 49.5985C17.6685 57.0039 24.1537 63.0071 32.1536 63.0071Z" fill="#E6E6E6"/>
<path d="M30.7291 41.905C31.6471 41.905 32.3913 41.2161 32.3913 40.3663C32.3913 39.5165 31.6471 38.8276 30.7291 38.8276C29.8111 38.8276 29.0669 39.5165 29.0669 40.3663C29.0669 41.2161 29.8111 41.905 30.7291 41.905Z" fill="#CBCBCB"/>
<path d="M33.5785 57.2917C34.4965 57.2917 35.2407 56.6028 35.2407 55.753C35.2407 54.9032 34.4965 54.2144 33.5785 54.2144C32.6605 54.2144 31.9163 54.9032 31.9163 55.753C31.9163 56.6028 32.6605 57.2917 33.5785 57.2917Z" fill="#CBCBCB"/>
<path d="M39.99 48.2797C40.6458 48.2797 41.1773 47.7876 41.1773 47.1806C41.1773 46.5736 40.6458 46.0815 39.99 46.0815C39.3343 46.0815 38.8027 46.5736 38.8027 47.1806C38.8027 47.7876 39.3343 48.2797 39.99 48.2797Z" fill="#CBCBCB"/>
<path d="M26.4549 54.2147C28.5532 54.2147 30.2543 52.6401 30.2543 50.6977C30.2543 48.7553 28.5532 47.1807 26.4549 47.1807C24.3566 47.1807 22.6555 48.7553 22.6555 50.6977C22.6555 52.6401 24.3566 54.2147 26.4549 54.2147Z" fill="#CBCBCB"/>
<path d="M55.1491 71.4641C55.5814 71.4641 55.9318 71.1398 55.9318 70.7396C55.9318 70.3395 55.5814 70.0151 55.1491 70.0151C54.7169 70.0151 54.3665 70.3395 54.3665 70.7396C54.3665 71.1398 54.7169 71.4641 55.1491 71.4641Z" fill="#6C63FF"/>
<path d="M61.9325 81.2495L61.5419 81.6087L61.1539 81.2471L60.8935 81.4865L61.2815 81.8481L60.8909 82.2073L61.1495 82.4483L61.5401 82.0892L61.9281 82.4507L62.1886 82.2113L61.8006 81.8497L62.1912 81.4906L61.9325 81.2495Z" fill="#E6E6E6"/>
<path d="M65.0629 60.2392L64.6723 60.5984L64.2843 60.2368L64.0239 60.4763L64.4118 60.8378L64.0212 61.197L64.2799 61.4381L64.6705 61.0789L65.0585 61.4405L65.3189 61.201L64.9309 60.8395L65.3215 60.4803L65.0629 60.2392Z" fill="#E6E6E6"/>
<path d="M74.902 20.3697C74.0568 20.891 73.1919 19.6504 74.0532 19.1522C74.8983 18.631 75.7633 19.8716 74.902 20.3697Z" fill="#E6E6E6"/>
<path d="M25.944 74.2877L25.4063 74.1785L25.524 73.6806L25.1656 73.6079L25.0476 74.1058L24.51 73.9968L24.4314 74.3286L24.9691 74.4378L24.8513 74.9355L25.2098 75.0083L25.3277 74.5104L25.8654 74.6195L25.944 74.2877Z" fill="#E6E6E6"/>
<path d="M108.225 14.5299L107.688 14.4207L107.806 13.9228L107.447 13.8501L107.329 14.348L106.791 14.239L106.713 14.5708L107.251 14.68L107.133 15.1777L107.491 15.2505L107.609 14.7525L108.147 14.8617L108.225 14.5299Z" fill="#E6E6E6"/>
<path d="M150.241 46.7384L149.703 46.6292L149.821 46.1313L149.463 46.0586L149.345 46.5565L148.807 46.4475L148.729 46.7793L149.266 46.8885L149.148 47.3862L149.507 47.459L149.625 46.961L150.163 47.0702L150.241 46.7384Z" fill="#E6E6E6"/>
<path d="M48.6817 22.3852L48.1441 22.276L48.2618 21.7783L47.9033 21.7056L47.7854 22.2033L47.2475 22.0943L47.1689 22.4261L47.7068 22.5353L47.5891 23.0332L47.9476 23.1057L48.0655 22.608L48.6032 22.717L48.6817 22.3852Z" fill="#E6E6E6"/>
<path d="M99.6432 38.9192C100.075 38.9192 100.426 38.5948 100.426 38.1947C100.426 37.7946 100.075 37.4702 99.6432 37.4702C99.211 37.4702 98.8606 37.7946 98.8606 38.1947C98.8606 38.5948 99.211 38.9192 99.6432 38.9192Z" fill="#6C63FF"/>
<path d="M93.7823 49.1691L93.2447 49.0599L93.3624 48.562L93.004 48.4893L92.886 48.9872L92.3483 48.8782L92.2698 49.21L92.8074 49.3192L92.6897 49.8169L93.0482 49.8896L93.1661 49.3917L93.7038 49.5009L93.7823 49.1691Z" fill="#E6E6E6"/>
<path d="M114.55 40.2114L114.013 40.1022L114.13 39.6045L113.772 39.5317L113.654 40.0295L113.116 39.9205L113.038 40.2523L113.575 40.3615L113.458 40.8594L113.816 40.9319L113.934 40.4342L114.472 40.5432L114.55 40.2114Z" fill="#E6E6E6"/>
<path opacity="0.8" d="M78.3099 44.2852L85.525 36.4663L92.74 28.6474L96.813 24.2335C97.0384 23.9893 96.6906 23.6083 96.4653 23.8525L89.2502 31.6714L82.0352 39.4903L77.9622 43.9042C77.7368 44.1484 78.0846 44.5294 78.3099 44.2852Z" fill="url(#paint1_linear)"/>
<path d="M85.6716 131.056H84.3586V151.723H85.6716V131.056Z" fill="#E6E6E6"/>
<path d="M88.7456 55.2207C88.2092 55.3551 87.7355 55.649 87.3974 56.0571C87.0593 56.4653 86.8756 56.9651 86.8746 57.4794V57.4997C86.7942 57.5219 86.7216 57.5631 86.6636 57.6193C86.6057 57.6754 86.5645 57.7444 86.5441 57.8197L85.3318 62.5011C85.3155 62.5642 85.3144 62.6299 85.3285 62.6935C85.3427 62.757 85.3718 62.8169 85.4138 62.8689C85.4558 62.9209 85.5096 62.9638 85.5714 62.9944C85.6333 63.025 85.7016 63.0426 85.7716 63.046L85.7629 63.1007L85.7301 63.3033L85.2355 64.7213C84.2967 66.2081 84.2157 67.5998 84.3624 69.0664H85.671V125.889L68.5933 146.409L69.8494 146.677L69.6502 146.916L67.2803 146.409L84.358 125.889V69.0664L83.266 68.9752C83.1194 67.5086 83.4214 66.2081 84.3602 64.7213L84.4171 63.3033L84.4499 63.1007L84.4586 63.046C84.3886 63.0426 84.3203 63.025 84.2584 62.9944C84.1966 62.9638 84.1428 62.9209 84.1008 62.8689C84.0588 62.8169 84.0297 62.757 84.0155 62.6935C84.0014 62.6299 84.0025 62.5642 84.0188 62.5011L85.2311 57.8197C85.2515 57.7444 85.2927 57.6754 85.3506 57.6193C85.4086 57.5631 85.4812 57.5219 85.5616 57.4997V57.4794C85.5618 56.8587 85.8281 56.2635 86.302 55.8245C86.7758 55.3854 87.4186 55.1384 88.0891 55.1377C88.3109 55.1383 88.5317 55.1662 88.7456 55.2207Z" fill="#E6E6E6"/>
<path d="M94.3558 131.056H93.134V131.165L106.347 146.915L107.461 146.677L94.3558 131.056Z" fill="#E6E6E6"/>
<path d="M112.673 143.65V147.468C106.86 149.583 100.805 151.075 94.6256 151.917H67.7091C67.0198 151.801 66.3327 151.678 65.6521 151.546V143.65H112.673Z" fill="#2F2E41"/>
<path d="M89.5135 131.847C89.3603 131.822 89.1984 131.798 89.0321 131.772C88.0539 131.626 86.8744 131.46 85.522 131.287C85.4301 131.275 85.336 131.263 85.2397 131.251C84.1237 131.111 82.896 130.969 81.5721 130.83C74.3134 130.074 64.1749 129.468 53.8284 130.301C54.0845 129.349 54.3208 128.397 54.544 127.449L44.6353 128.869L55.3274 123.835C56.3347 118.664 57.0273 113.444 57.402 108.201L52.0493 108.966L57.5223 106.39C57.914 99.9013 57.7302 95.5825 57.7302 95.5825C57.7302 95.5825 39.8275 104.198 25.5115 117.365C24.9863 115.651 24.4107 113.96 23.798 112.299L16.1082 118.254L22.4478 108.831C20.4237 103.921 18.1019 99.1213 15.4933 94.4542L11.3398 97.671L14.5873 92.8458C11.3004 87.1029 8.73135 83.4932 8.73135 83.4932C8.73135 83.4932 5.80118 87.9375 2.31079 94.7986C5.60256 107.351 12.2863 118.923 21.7344 128.429C23.8702 130.581 26.1366 132.618 28.5226 134.531C28.9887 134.903 29.4592 135.272 29.9341 135.637C32.4634 137.575 35.1152 139.371 37.8755 141.017C38.0375 141.114 38.1994 141.209 38.3635 141.304C46.7184 146.213 55.9633 149.683 65.652 151.546C66.3326 151.678 67.0197 151.802 67.709 151.917C67.8775 151.945 68.046 151.974 68.2145 152H71.0068C71.0068 152 72.2454 151.945 72.2804 151.917C75.7489 149.107 78.8936 146.267 81.6049 143.65C82.222 143.057 82.815 142.473 83.3862 141.906L78.7076 139.38L84.7123 140.571C84.9881 140.29 85.2594 140.012 85.522 139.741C86.87 138.347 88.0386 137.085 89.008 136.013C89.1743 135.827 89.3363 135.649 89.4916 135.475C91.2576 133.501 92.2292 132.298 92.2292 132.298C92.2292 132.298 91.2532 132.114 89.5135 131.847Z" fill="#2F2E41"/>
<path d="M84.358 69.0663H83.0494C82.9028 67.5997 83.2682 66.1229 84.207 64.6361L84.4171 63.3032L84.4499 63.1006H85.7629L85.7301 63.3032L85.52 64.6361C84.5812 66.1229 84.2157 67.5997 84.3624 69.0663H85.671" fill="#6C63FF"/>
<path d="M85.6709 86.5986H84.3579V101.386H85.6709V86.5986Z" fill="#6C63FF"/>
<path d="M132.722 25.4223C134.052 25.4223 135.129 24.4247 135.129 23.1941C135.129 21.9634 134.052 20.9658 132.722 20.9658C131.393 20.9658 130.315 21.9634 130.315 23.1941C130.315 24.4247 131.393 25.4223 132.722 25.4223Z" fill="#6C63FF"/>
</g>
<defs>
<linearGradient id="paint0_linear" x1="89.7063" y1="77.4184" x2="108.703" y2="77.4184" gradientUnits="userSpaceOnUse">
<stop stop-color="white"/>
<stop offset="1" stop-color="white" stop-opacity="0.3"/>
</linearGradient>
<linearGradient id="paint1_linear" x1="11075.8" y1="5027.15" x2="12724.9" y2="5027.15" gradientUnits="userSpaceOnUse">
<stop stop-color="white"/>
<stop offset="1" stop-color="white" stop-opacity="0.3"/>
</linearGradient>
<clipPath id="clip0">
<rect width="165" height="152" fill="white"/>
</clipPath>
</defs>
</svg>
